<svg xmlns="http://www.w3.org/2000/svg" width="300" height="300" viewBox="0 0 300 300">
  <defs>
    <linearGradient id="grad" x1="0%" y1="0%" x2="100%" y2="100%">
      <stop offset="0%" stop-color="#8b5cf6" />
      <stop offset="100%" stop-color="#ec4899" />
    </linearGradient>
    <filter id="glow" x="-20%" y="-20%" width="140%" height="140%">
      <feGaussianBlur stdDeviation="6" result="blur" />
      <feComposite in="SourceGraphic" in2="blur" operator="over" />
    </filter>
  </defs>
  <rect width="300" height="300" fill="url(#grad)" rx="30"/>
  <!-- Elegant Musical Note Icon -->
  <path d="M190,90 C190,90 190,165 190,165 C185,155 170,150 155,155 C135,160 125,180 130,195 C135,210 155,220 170,215 C190,205 195,185 195,170 C195,170 195,115 195,115 C210,125 230,130 230,130 L230,105 C230,105 210,95 190,90 Z" fill="#ffffff" filter="url(#glow)"/>
</svg>